<svg xmlns="http://www.w3.org/2000/svg" viewBox="0 0 1536 864" role="img" aria-label="Blue cats hero banner for Doaa">
  <defs>
    <linearGradient id="bg" x1="0" y1="0" x2="1" y2="1"><stop stop-color="#ffffff"/><stop offset=".45" stop-color="#dce9ff"/><stop offset="1" stop-color="#2f6fdb"/></linearGradient>
    <radialGradient id="glow" cx="18%" cy="18%" r="62%"><stop stop-color="#ffffff" stop-opacity=".95"/><stop offset="1" stop-color="#ffffff" stop-opacity="0"/></radialGradient>
    <filter id="softShadow"><feDropShadow dx="0" dy="22" stdDeviation="18" flood-color="#0f4fb8" flood-opacity=".20"/></filter>
  </defs>
  <rect width="1536" height="864" fill="url(#bg)"/><rect width="1536" height="864" fill="url(#glow)"/>
  <path d="M0 540C220 492 390 560 620 508C880 448 1120 478 1536 382V864H0Z" fill="#ecf3ff" opacity=".86"/>
  <path d="M0 646C260 560 460 660 760 562C1040 470 1260 488 1536 416" stroke="#ffffff" stroke-width="14" stroke-linecap="round" fill="none" opacity=".62"/>
  <g opacity=".82"><circle cx="160" cy="590" r="48" fill="#c9ddff"/><circle cx="220" cy="550" r="32" fill="#e9f3ff"/><circle cx="276" cy="604" r="38" fill="#dce9ff"/><path d="M96 668c92-62 188-54 278-6" stroke="#ffffff" stroke-width="18" stroke-linecap="round" fill="none" opacity=".72"/></g>
  <g filter="url(#softShadow)">
    <ellipse cx="820" cy="692" rx="330" ry="72" fill="#0f4fb8" opacity=".14"/>
    <ellipse cx="835" cy="560" rx="205" ry="138" fill="#f8f5ef"/>
    <circle cx="754" cy="420" r="92" fill="#fbf8f2"/>
    <path d="M686 370l34-96 62 84Z" fill="#fbf8f2"/>
    <path d="M818 365l78-78 2 112Z" fill="#fbf8f2"/>
    <ellipse cx="724" cy="421" rx="18" ry="24" fill="#2f6fdb"/>
    <ellipse cx="786" cy="421" rx="18" ry="24" fill="#2f6fdb"/>
    <path d="M754 454c-16 18-36 18-52 0M754 454c16 18 36 18 52 0" stroke="#8c7668" stroke-width="6" stroke-linecap="round" fill="none"/>
    <path d="M754 440l-14-10h28Z" fill="#c59280"/>
    <ellipse cx="632" cy="622" rx="168" ry="94" fill="#fffaf3"/>
    <circle cx="548" cy="528" r="64" fill="#fffaf3"/>
    <path d="M504 500l20-72 50 58Z" fill="#fffaf3"/>
    <path d="M590 500l58-52-4 80Z" fill="#fffaf3"/>
    <ellipse cx="528" cy="528" rx="13" ry="18" fill="#2f6fdb"/>
    <ellipse cx="580" cy="528" rx="13" ry="18" fill="#2f6fdb"/>
    <path d="M554 555c-16 15-32 14-48 0M554 555c16 15 32 14 48 0" stroke="#8c7668" stroke-width="5" stroke-linecap="round" fill="none"/>
  </g>
  <g opacity=".52"><rect x="1080" y="92" width="158" height="230" rx="24" fill="#ffffff"/><path d="M1160 92v230M1108 170h104M1108 230h104" stroke="#b7d1fb" stroke-width="6" stroke-linecap="round"/><ellipse cx="1305" cy="540" rx="110" ry="220" fill="#ffffff" opacity=".45"/></g>
</svg>
