<svg xmlns="http://www.w3.org/2000/svg" viewBox="0 0 1536 864" role="img" aria-label="Egyptian food hero banner for Moustafa">
  <defs>
    <linearGradient id="bg" x1="0" y1="0" x2="1" y2="1"><stop stop-color="#1d100b"/><stop offset=".45" stop-color="#6d2b26"/><stop offset="1" stop-color="#c98a50"/></linearGradient>
    <radialGradient id="sun" cx="62%" cy="22%" r="50%"><stop stop-color="#ffd99f" stop-opacity=".72"/><stop offset=".55" stop-color="#9f5b33" stop-opacity=".22"/><stop offset="1" stop-color="#120b08" stop-opacity="0"/></radialGradient>
    <filter id="shadow"><feDropShadow dx="0" dy="18" stdDeviation="18" flood-color="#000" flood-opacity=".38"/></filter>
    <pattern id="screen" width="90" height="90" patternUnits="userSpaceOnUse" patternTransform="rotate(45)"><rect width="90" height="90" fill="none"/><path d="M0 45h90M45 0v90" stroke="#ffe2af" stroke-opacity=".14" stroke-width="9" stroke-linecap="round"/></pattern>
  </defs>
  <rect width="1536" height="864" fill="url(#bg)"/><rect width="1536" height="864" fill="url(#sun)"/><rect width="430" height="864" fill="url(#screen)" opacity=".62"/>
  <path d="M0 560C220 520 420 590 650 540c260-56 480-18 886-94v418H0Z" fill="#2b160f" opacity=".76"/>
  <path d="M0 630C250 580 432 660 720 592c280-66 520-22 816-88" fill="none" stroke="#f0c98c" stroke-width="7" stroke-opacity=".22"/>
  <g filter="url(#shadow)">
    <ellipse cx="735" cy="610" rx="295" ry="88" fill="#160c09" opacity=".38"/>
    <ellipse cx="735" cy="560" rx="260" ry="100" fill="#8e4a29"/>
    <ellipse cx="735" cy="535" rx="215" ry="68" fill="#6a311d"/>
    <g fill="#b86a3b"><circle cx="626" cy="520" r="22"/><circle cx="685" cy="555" r="28"/><circle cx="740" cy="515" r="22"/><circle cx="790" cy="558" r="24"/><circle cx="846" cy="522" r="20"/></g>
    <path d="M598 505c95 64 185-26 294 36" fill="none" stroke="#76a45b" stroke-width="13" stroke-linecap="round" opacity=".8"/>
    <path d="M672 490l50 18 60-12 72 26" fill="none" stroke="#f5d169" stroke-width="8" stroke-linecap="round" opacity=".72"/>
  </g>
  <g filter="url(#shadow)">
    <ellipse cx="332" cy="646" rx="190" ry="58" fill="#160c09" opacity=".28"/><ellipse cx="332" cy="612" rx="165" ry="70" fill="#ded0b9"/><g fill="#5b2b19"><circle cx="238" cy="590" r="27"/><circle cx="286" cy="623" r="30"/><circle cx="340" cy="586" r="29"/><circle cx="394" cy="621" r="30"/><circle cx="438" cy="592" r="27"/></g><path d="M206 574c92 40 194-30 270 22" stroke="#6aa04b" stroke-width="13" fill="none" stroke-linecap="round"/></g>
  <g filter="url(#shadow)">
    <ellipse cx="1145" cy="472" rx="225" ry="62" fill="#160c09" opacity=".25"/><ellipse cx="1116" cy="430" rx="132" ry="50" fill="#ead09a"/><ellipse cx="1214" cy="390" rx="142" ry="52" fill="#d6a361"/><ellipse cx="1260" cy="462" rx="126" ry="47" fill="#f3ce8b"/></g>
  <g filter="url(#shadow)">
    <path d="M1055 246h120l-25 230c-5 44-28 66-68 66s-63-22-68-66l-25-230h66Z" fill="#612021"/><path d="M1015 292h150l-16 116h-118Z" fill="#b85f32" opacity=".86"/><ellipse cx="1082" cy="246" rx="82" ry="18" fill="#ffd5a0" opacity=".72"/><path d="M1174 310c80 8 90 92 18 120" fill="none" stroke="#f1c17d" stroke-width="17" stroke-linecap="round" opacity=".78"/></g>
  <g opacity=".42" fill="#f7dba8"><circle cx="488" cy="132" r="12"/><circle cx="552" cy="92" r="8"/><circle cx="1268" cy="112" r="11"/><circle cx="1348" cy="178" r="7"/></g>
</svg>
