<svg xmlns="http://www.w3.org/2000/svg" viewBox="0 0 1536 864">
  <defs>
    <linearGradient id="a" x1="0" y1="0" x2="0" y2="1"><stop stop-color="#60B5F3"/><stop offset="0.55" stop-color="#BDEBFF"/><stop offset="1" stop-color="#EAF8FF"/></linearGradient>
    <linearGradient id="b" x1="0" y1="0" x2="1" y2="0"><stop stop-color="#0178CD"/><stop offset="0.55" stop-color="#01D2E7"/><stop offset="1" stop-color="#01DEE3"/></linearGradient>
  </defs>
  <rect width="1536" height="864" fill="url(#a)"/>
  <ellipse cx="190" cy="140" rx="120" ry="36" fill="#fff" opacity="0.75"/>
  <ellipse cx="560" cy="118" rx="92" ry="30" fill="#fff" opacity="0.7"/>
  <rect y="318" width="1536" height="326" fill="url(#b)"/>
  <path d="M0 392 C220 430 370 354 570 404 C820 466 1010 370 1536 420" stroke="#fff" stroke-width="10" fill="none" opacity="0.52"/>
  <path d="M0 504 C250 552 430 450 710 512 C990 574 1230 492 1536 526" stroke="#fff" stroke-width="14" fill="none" opacity="0.42"/>
  <path d="M0 612 C260 592 500 604 740 640 C1030 684 1240 626 1536 596 L1536 864 L0 864 Z" fill="#F7FBFF"/>
  <rect x="930" y="220" width="430" height="410" rx="24" fill="#fff" opacity="0.96"/>
  <rect x="1014" y="352" width="300" height="170" rx="14" fill="#DDF7FA"/>
  <line x1="1114" y1="352" x2="1114" y2="522" stroke="#064E8A" stroke-width="8" opacity="0.28"/>
  <line x1="1214" y1="352" x2="1214" y2="522" stroke="#064E8A" stroke-width="8" opacity="0.28"/>
  <rect x="880" y="590" width="560" height="78" rx="20" fill="#fff"/>
  <ellipse cx="1328" cy="210" rx="32" ry="160" fill="#238B52" transform="rotate(30 1328 210)"/>
  <ellipse cx="1390" cy="198" rx="28" ry="146" fill="#238B52" transform="rotate(52 1390 198)"/>
  <rect x="1300" y="232" width="28" height="210" rx="14" fill="#8A6230"/>
  <circle cx="170" cy="710" r="70" fill="#75B856"/>
  <circle cx="250" cy="684" r="54" fill="#75B856"/>
  <circle cx="330" cy="724" r="66" fill="#75B856"/>
  <circle cx="900" cy="676" r="64" fill="#75B856"/>
  <path d="M0 764 C170 694 280 700 410 762 C570 838 690 832 830 774 C1000 702 1168 714 1350 826 L1350 864 L0 864 Z" fill="#DDEBE8" opacity="0.92"/>
</svg>
